<?xml version="1.0" encoding="UTF-8" standalone="no"?>
<!-- Created with Inkscape (http://www.inkscape.org/) -->

<svg
   width="71.858322mm"
   height="88.068657mm"
   viewBox="0 0 71.858322 88.068657"
   version="1.1"
   id="svg5"
   inkscape:version="1.1 (c4e8f9e, 2021-05-24)"
   sodipodi:docname="logo.svg"
   xmlns:inkscape="http://www.inkscape.org/namespaces/inkscape"
   xmlns:sodipodi="http://sodipodi.sourceforge.net/DTD/sodipodi-0.dtd"
   xmlns="http://www.w3.org/2000/svg"
   xmlns:svg="http://www.w3.org/2000/svg">
  <sodipodi:namedview
     id="namedview7"
     pagecolor="#ffffff"
     bordercolor="#666666"
     borderopacity="1.0"
     inkscape:pageshadow="2"
     inkscape:pageopacity="0.0"
     inkscape:pagecheckerboard="0"
     inkscape:document-units="mm"
     showgrid="false"
     inkscape:zoom="0.41513749"
     inkscape:cx="20.475144"
     inkscape:cy="436.00014"
     inkscape:window-width="1280"
     inkscape:window-height="694"
     inkscape:window-x="0"
     inkscape:window-y="23"
     inkscape:window-maximized="0"
     inkscape:current-layer="layer1" />
  <defs
     id="defs2" />
  <g
     inkscape:label="Layer 1"
     inkscape:groupmode="layer"
     id="layer1"
     transform="translate(-99.590826,-33.141631)">
    <path
       style="fill:#ff7c00;fill-opacity:1;stroke:none;stroke-width:0.264583px;stroke-linecap:butt;stroke-linejoin:miter;stroke-opacity:1"
       d="m 170.16953,33.141631 c -11.41671,6.008796 -23.94971,6.831849 -35.11221,6.803135 -18.87174,-0.04855 -22.59397,4.868793 -27.98436,12.954374 -10.197423,15.296137 -7.01073,37.603004 -7.01073,37.603004 0,0 -1.342293,-13.185882 17.8455,-22.944206 14.86841,-7.561619 15.29613,-2.549356 31.22961,-6.373389 15.93347,-3.824034 21.03219,-28.042918 21.03219,-28.042918 z"
       id="path153"
       sodipodi:nodetypes="csscssc" />
    <path
       style="fill:#ff7c00;fill-opacity:1;stroke:none;stroke-width:0.264583px;stroke-linecap:butt;stroke-linejoin:miter;stroke-opacity:1"
       d="m 171.44915,53.652349 c -10.12117,9.150962 -21.77013,15.731152 -31.90462,15.283326 -14.11627,-0.623774 -24.61874,5.130449 -30.55461,14.034268 -10.197428,15.296142 -8.28541,38.240347 -8.28541,38.240347 0,0 -1.342288,-13.18588 17.8455,-22.944202 14.86841,-7.561624 15.29613,-2.54936 31.22961,-6.373394 15.93347,-3.82404 21.66953,-38.240345 21.66953,-38.240345 z"
       id="path153-2"
       sodipodi:nodetypes="csscssc" />
  </g>
</svg>
